<?xml version="1.0" standalone="no"?>
<!DOCTYPE svg PUBLIC "-//W3C//DTD SVG 1.1//EN" "http://www.w3.org/Graphics/SVG/1.1/DTD/svg11.dtd" >
<svg xmlns="http://www.w3.org/2000/svg">
<metadata>
This is a custom SVG font generated by IcoMoon.
<iconset grid="16"></iconset>
</metadata>
<defs>
<font id="icomoon" horiz-adv-x="512" >
<font-face units-per-em="512" ascent="480" descent="-32" />
<missing-glyph horiz-adv-x="512" />
<glyph class="hidden" unicode="&#xf000;" d="M0,480L 512 -32L0 -32 z" horiz-adv-x="0" />
<glyph unicode="&#xe000;" d="M 488.791,382.769c-16.992,4.854-34.705-4.985-39.56-21.978L 446.72,352L 148.249,352 l-4.496,35.969
		C 141.751,403.983, 128.138,416, 112,416L 32,416 C 14.327,416,0,401.673,0,384s 14.327-32, 32-32l 51.751,0 l 28.496-227.969
		C 114.249,108.018, 127.862,96, 144,96l 272,0 c 14.287,0, 26.844,9.472, 30.769,23.209l 64,224
		C 515.624,360.202, 505.784,377.914, 488.791,382.769z M 256,224l0,32 l 63.998,0 l0-32 L 256,224 z M 319.998,192l0-32 L 256,160 l0,32 L 319.998,192 z M 256,288l0,32 
		l 63.998,0 l0-32 L 256,288 z M 152.249,320L 224,320 l0-32 l-67.751,0 L 152.249,320z M 160.249,256L 224,256 l0-32 l-59.751,0 L 160.249,256z M 168.249,192L 224,192 l0-32 l-51.751,0 
		L 168.249,192z M 391.862,160l-39.864,0 l0,32 l 49.007,0 L 391.862,160z M 410.148,224l-58.15,0 l0,32 l 67.293,0 L 410.148,224z M 428.434,288l-76.436,0 
		l0,32 l 85.579,0 L 428.434,288zM 128,16A48,48 2700 1 1 224,16A48,48 2700 1 1 128,16zM 320,16A48,48 2700 1 1 416,16A48,48 2700 1 1 320,16z" data-tags="cart, ecommerce, shopping, products, purchase, buy, store" />
<glyph unicode="&#xe001;" d="M 311.413,128.632c-11.055,1.759-11.307,32.157-11.307,32.157s 32.484,32.158, 39.564,75.401
	c 19.045,0, 30.809,45.973, 11.761,62.148C 352.226,315.365, 375.911,432, 256,432c-119.911,0-96.225-116.635-95.432-133.662
	c-19.047-16.175-7.285-62.148, 11.761-62.148c 7.079-43.243, 39.564-75.401, 39.564-75.401s-0.252-30.398-11.307-32.157
	C 164.976,122.966, 32,64.315, 32,0l 224,0 l 224,0 C 480,64.315, 347.024,122.966, 311.413,128.632z" data-tags="user, profile, avatar, person, talk, member" />
<glyph unicode="&#xe003;" d="M 512,184.778 L 256,383.491 L 0,184.777 L 0,265.796 L 256,464.509 L 512,265.795 ZM 448,192 L 448,0 L 320,0 L 320,128 L 192,128 L 192,0 L 64,0 L 64,192 L 256,336 Z" data-tags="home, house, building" />
<glyph unicode="&#xe004;" d="M 64,352l0-320 l 448,0 L 512,352 L 64,352 z M 480,85.333L 416,192l-72.533-60.444L 288,224L 96,64L 96,320 l 384,0 L 480,85.333 zM 128,240A48,48 7740 1 1 224,240A48,48 7740 1 1 128,240zM 448,416L0,416L0,96L 32,96L 32,384L 448,384 	z" data-tags="images, pictures, photos, graphics" />
<glyph unicode="&#xe005;" d="M 496.131,44.302L 374.855,147.449c-12.537,11.283-25.945,16.463-36.776,15.963C 366.707,196.946, 384,240.451, 384,288
	C 384,394.039, 298.039,480, 192,480C 85.962,480,0,394.039,0,288c0-106.039, 85.961-192, 192-192c 47.549,0, 91.054,17.293, 124.588,45.922
	c-0.5-10.831, 4.68-24.239, 15.963-36.776l 103.147-121.276c 17.661-19.623, 46.511-21.277, 64.11-3.678S 515.754,26.641, 496.131,44.302z
	 M 192,160c-70.692,0-128,57.308-128,128S 121.308,416, 192,416s 128-57.308, 128-128S 262.693,160, 192,160z" data-tags="search, magnifier, lookup, find" />
<glyph unicode="&#xe006;" d="M 152,176c0-57.438, 46.562-104, 104-104s 104,46.562, 104,104s-46.562,104-104,104S 152,233.438, 152,176z M 480,352L 368,352 
	c-8,32-16,64-48,64L 192,416 c-32,0-40-32-48-64L 32,352 c-17.6,0-32-14.4-32-32l0-288 c0-17.6, 14.4-32, 32-32l 448,0 c 17.6,0, 32,14.4, 32,32L 512,320 
	C 512,337.6, 497.6,352, 480,352z M 256,34c-78.425,0-142,63.574-142,142c0,78.425, 63.575,142, 142,142c 78.426,0, 142-63.575, 142-142
	C 398,97.574, 334.427,34, 256,34z M 480,256l-64,0 l0,32 l 64,0 L 480,256 z" data-tags="camera, photo, picture, image" />
<glyph unicode="&#xe007;" d="M 512,288 L 320,288 L 391.765,359.765 C 355.5,396.028 307.285,416 256,416 C 204.715,416 156.5,396.028 120.235,359.765 C 83.972,323.5 64,275.285 64,224 C 64,172.715 83.972,124.5 120.235,88.235 C 156.5,51.972 204.715,32 256,32 C 307.285,32 355.5,51.972 391.764,88.236 C 394.792,91.263 397.694,94.382 400.492,97.57 L 448.652,55.429 C 401.729,1.846 332.82-32 256-32 C 114.615-32 0,82.615 0,224 C 0,365.385 114.615,480 256,480 C 326.693,480 390.684,451.337 437.008,405.008 L 512,480 L 512,288 Z" data-tags="spinner, loading, busy, wait, wheel, repeat" />
<glyph unicode="&#xe008;" d="M 512,300.922 C 512,257.741 493.391,218.907 463.755,192 L 464,192 L 304,32 C 288,16 272,0 256,0 C 240,0 224,16 208,32 L 48,192 L 48.245,192 C 18.609,218.907 0,257.741 0,300.922 C 0,382.151 65.849,448 147.078,448 C 190.259,448 229.093,429.391 256,399.755 C 282.907,429.391 321.741,448 364.922,448 C 446.15,448 512,382.151 512,300.922 Z" data-tags="heart, like, love, favorite" />
<glyph unicode="&#xe009;" d="M 464,192 C 500.5,192 480,96 448,96 C 464,96 448,16 416,16 C 416-16 384-32 352-32 C 216.824-32 264.368,1.825 128,16 L 128,272 C 248.461,308.134 368,398.712 368,480 C 394.5,480 464,448 368,288 C 368,288 448,288 464,288 C 512,288 496,192 464,192 ZM 96,272 L 96,16 L 128,16 L 128,0 L 64,0 C 46.4,0 32,21.6 32,48 L 32,240 C 32,266.4 46.4,288 64,288 L 128,288 L 128,272 L 96,272 Z" data-tags="thumbs-up, up, like, rate, vote up" />
<glyph unicode="&#xe00a;" d="M 48,256 C 11.5,256 32,352 64,352 C 48,352 64,432 96,432 C 96,464 128,480 160,480 C 295.176,480 247.632,446.175 384,432 L 384,176 C 263.539,139.866 144,49.288 144-32 C 117.5-32 48,0 144,160 C 144,160 64,160 48,160 C 0,160 16,256 48,256 ZM 416,176 L 416,432 L 384,432 L 384,448 L 448,448 C 465.6,448 480,426.4 480,400 L 480,208 C 480,181.6 465.6,160 448,160 L 384,160 L 384,176 L 416,176 Z" data-tags="thumbs-up, up, like, rate, vote down" />
<glyph unicode="&#xe00b;" d="M 464,416L 48,416 C 21.6,416,0,394.4,0,368l0-320 c0-26.4, 21.6-48, 48-48l 416,0 c 26.4,0, 48,21.6, 48,48L 512,368 C 512,394.4, 490.4,416, 464,416z
	 M 199.37,204.814L 64,99.368L 64,350.189 L 199.37,204.814z M 88.19,352L 423.81,352 L 256,226L 88.19,352z M 204.644,199.151L 256,144l 51.355,55.151
	L 412.632,64L 99.368,64 L 204.644,199.151z M 312.63,204.814L 448,350.189l0-250.821 L 312.63,204.814z" data-tags="envelop, mail, email, contact, letter" />
<glyph unicode="&#xe00c;" d="M 400,416L 112,416 c-26.51,0-48-21.49-48-48l0-16 l 384,0 l0,16 C 448,394.51, 426.51,416, 400,416zM 316.16,448l 7.058-50.5L 188.782,397.5 l 7.057,50.5L 316.16,448  M 320,480L 192,480 c-13.2,0-25.495-10.696-27.321-23.769l-9.357-66.962
	C 153.495,376.196, 162.8,365.5, 176,365.5l 160,0 c 13.2,0, 22.505,10.696, 20.679,23.769l-9.357,66.962C 345.495,469.304, 333.2,480, 320,480L 320,480z
	M 408,320L 104,320 c-17.6,0-30.696-14.341-29.103-31.869l 26.206-288.263C 102.696-17.659, 118.4-32, 136-32l 240,0 
	c 17.6,0, 33.304,14.341, 34.897,31.868l 26.205,288.263C 438.696,305.659, 425.6,320, 408,320z M 192,32l-48,0 l-16,224l 64,0 L 192,32 z M 288,32l-64,0 
	L 224,256 l 64,0 L 288,32 z M 368,32l-48,0 L 320,256 l 64,0 L 368,32z" data-tags="remove, delete, trashcan, recycle bin, bin, dispose" />
<glyph unicode="&#xe00d;" d="M 224,92.186L 224-32 L 32,160l 192,192l0-126.912 C 447.375,219.848, 437.794,376.984, 380.931,480
	C 521.286,328.293, 491.481,85.215, 224,92.186z" data-tags="reply, arrow, left" />
<glyph unicode="&#xe00e;" d="M 256,448 C 397.385,448 512,354.875 512,240 C 512,125.124 397.385,32 256,32 C 242.422,32 229.095,32.867 216.088,34.522 C 161.099-20.467 95.463-30.328 32-31.776 L 32-18.318 C 66.268-1.529 96,29.052 96,64 C 96,68.877 95.621,73.665 94.918,78.348 C 37.020,116.48 0,174.725 0,240 C 0,354.875 114.615,448 256,448 Z" data-tags="bubble, comment, chat, talk" />
<glyph unicode="&#xe00f;" d="M 544,29.417 C 544,6.667 557.014-13.037 576-22.675 L 576-30.644 C 570.687-31.371 565.264-31.756 559.75-31.756 C 525.746-31.756 495.076-17.492 473.389,5.376 C 460.278,1.885 446.388,0 432,0 C 352.471,0 288,57.308 288,128 C 288,198.692 352.471,256 432,256 C 511.529,256 576,198.692 576,128 C 576,100.326 566.118,74.704 549.322,53.767 C 545.91,46.355 544,38.111 544,29.417 ZM 256,480 C 395.229,480 508.496,389.693 511.918,277.24 C 487.327,288.2 460.125,294 432,294 C 384.22,294 339.092,277.277 304.931,246.911 C 269.508,215.425 250,173.194 250,128 C 250,105.664 254.772,84.056 263.868,64.106 C 261.254,64.043 258.634,64 256,64 C 242.422,64 229.095,64.867 216.088,66.522 C 161.099,11.533 95.463,1.672 32,0.224 L 32,13.682 C 66.268,30.471 96,61.052 96,96 C 96,100.877 95.621,105.665 94.918,110.348 C 37.020,148.48 0,206.725 0,272 C 0,386.875 114.615,480 256,480 Z" horiz-adv-x="576" data-tags="bubbles, comments, chat, talk" />
<glyph unicode="&#xe010;" d="M 240,416 C 214.667,416 190.209,412.025 167.307,404.186 C 145.845,396.839 126.75,386.468 110.556,373.363 C 80.534,349.068 64,317.962 64,285.776 C 64,267.781 69.033,250.302 78.96,233.827 C 89.303,216.657 104.909,200.93 124.090,188.348 C 139.31,178.364 149.558,162.372 152.271,144.373 C 152.722,141.378 153.086,138.37 153.361,135.357 C 154.722,136.617 156.073,137.914 157.418,139.254 C 169.487,151.274 185.762,157.91 202.579,157.91 C 205.253,157.91 207.938,157.742 210.626,157.401 C 220.306,156.175 230.188,155.553 240,155.553 C 265.333,155.553 289.79,159.527 312.692,167.367 C 334.155,174.713 353.25,185.084 369.444,198.189 C 399.467,222.484 416,253.59 416,285.776 C 416,317.962 399.467,349.067 369.444,373.363 C 353.25,386.469 334.155,396.839 312.692,404.186 C 289.79,412.025 265.333,416 240,416 Z M 240,480 L 240,480 C 372.548,480 480,393.043 480,285.776 C 480,178.509 372.548,91.552 240,91.552 C 227.271,91.552 214.777,92.362 202.583,93.907 C 151.030,42.56 91.497,33.353 32,32 L 32,44.567 C 64.126,60.244 90,88.8 90,121.434 C 90,125.987 89.644,130.458 88.985,134.831 C 34.706,170.438 0,224.825 0,285.776 C 0,393.043 107.452,480 240,480 ZM 498,44.657 C 498,16.686 516.157-7.792 544-21.229 L 544-32 C 492.437-30.841 445.107-22.949 400.429,21.063 C 389.859,19.738 379.032,19.043 368,19.043 C 320.265,19.043 276.296,31.922 241.193,53.563 C 313.53,53.816 381.823,76.99 433.61,118.899 C 459.714,140.025 480.307,164.812 494.817,192.573 C 510.2,222.006 518,253.364 518,285.776 C 518,291 517.775,296.194 517.371,301.36 C 553.656,271.393 576,230.549 576,185.522 C 576,133.278 545.921,86.661 498.88,56.14 C 498.309,52.392 498,48.56 498,44.657 Z" horiz-adv-x="576" data-tags="bubbles, comments, chat, talk" />
<glyph unicode="&#xe011;" d="M 7.008,217.792A58.768,58.768 180 1 1 124.544,217.79199999999997A58.768,58.768 180 1 1 7.008,217.79199999999997zM 200.336,220.096A58.768,58.768 180 1 1 317.872,220.096A58.768,58.768 180 1 1 200.336,220.096zM 387.456,220.096A58.768,58.768 180 1 1 504.992,220.096A58.768,58.768 180 1 1 387.456,220.096z" data-tags="dot-dot-dot" />
<glyph unicode="&#xe012;" d="M 568.876,390.953c-5.305,4.908-11.602,8.955-17.53,12.13c-10.264,5.496-21.194,9.552-31.77,14.374
	c-10.297,4.694-20.563,9.45-31.378,12.856c-10.374,3.265-21.030,5.546-31.764,7.249
	c-22.68,3.6-45.809,5.687-68.733,6.93c-11.701,0.635-23.424,0.867-35.141,0.703
	c-11.617-0.161-22.95-2.262-34.518-2.911c-11.614-0.652-22.346-3.209-33.48-6.458
	c-11.009-3.213-22.109-6.259-32.822-10.388c-9.814-3.788-19.147-8.702-28.137-14.14
	c-9.656-5.842-19.281-11.768-28.482-18.309c-8.757-6.223-17.111-13.041-24.405-20.946
	c-7.578-8.215-13.894-17.507-20.184-26.716c-6.75-9.886-13.911-19.507-20.186-29.71
	c-6.602-10.723-10.205-22.693-14.638-34.376c-7.938-20.941-16.36-41.88-20.486-63.989
	c-4.23-22.669-4.27-46.003-0.759-68.768c 2.886-18.699, 7.984-37.085, 15.555-54.437c 0.578-1.322, 1.172-2.635, 1.776-3.947
	c 4.717-10.192, 10.358-20.043, 17.198-28.963c 6.979-9.094, 15.189-16.97, 23.368-24.959
	c 4.095-3.998, 7.62-8.248, 11.261-12.639c 3.404-4.109, 7.279-6.278, 12.591-6.897c 11.24-1.312, 21.731-5.321, 32.868-7.252
	c 22.924-3.966, 46.478-3.692, 69.442-0.16c 6.693,1.856, 13.387,3.672, 20.136,5.303
	c 10.055,2.424, 20.137,4.738, 30.224,7.056c 6.804,2.218, 13.547,4.591, 20.225,7.104
	c 22.422,8.452, 44.494,18.139, 66.219,28.233c 10.253,4.773, 19.854,10.253, 28.685,17.348
	c 5.683,4.567, 11.268,8.837, 17.216,12.724c 2.265,2.044, 4.503,4.125, 6.789,6.167c 6.87,8.005, 13.732,15.679, 21.69,22.907
	c 2.163,1.966, 4.354,3.949, 6.523,5.955c 1.628,4.795, 3.195,9.62, 4.648,14.47c-0.073,1.6-0.224,3.208-0.406,4.822
	c-2.396-0.654-5.035-2.633-6.395-4.182c-5.126-5.82-10.927-11.006-17.309-15.409c-9.288-6.406-19.551-11.224-29.352-16.768
	c-10.308-5.84-19.55-12.682-28.897-19.918c-18.395-14.239-40.684-23.54-61.902-32.746
	c-10.946-4.761-22.019-9.436-33.274-13.444c-5.364-1.912-11.049-3.716-16.76-4.139c-2.784-0.199-4.992,0.488-7.599,1.29
	c-2.743,0.844-4.99,0.419-7.652-0.531c-11.255-4.042-22.853-7.106-34.879-7.292
	c-12.232-0.192-24.174,2.938-36.044,5.505c-10.634,2.301-21.81,3.957-31.724,8.642
	c-9.992,4.72-17.081,13.232-25.355,20.29c-8.775,7.483-14.763,16.103-19.589,26.543
	c-4.827,10.45-9.276,21.255-12.384,32.342c-6.197,22.097-3.25,44.641-2.435,67.18
	c 0.182,5.129, 0.465,10.262, 1.177,15.347c 2.981,21.304, 6.907,42.123, 15.374,62.031c 1.445,3.391, 2.992,6.737, 4.648,10.030
	c 9.806,19.519, 22.834,36.291, 37.134,52.665c 6.907,7.903, 13.91,15.795, 22.458,21.976
	c 8.783,6.353, 18.547,11.135, 27.968,16.433c 9.692,5.451, 19.119,11.424, 29.246,16.052
	c 10.043,4.584, 20.701,7.671, 31.507,9.832c 22.593,4.518, 45.695,5.564, 68.676,5.824
	c 22.385,0.256, 44.9,0.601, 67.126-2.522c 11.269-1.583, 22.392-4.117, 33.267-7.467c 9.745-3.003, 19.279-6.952, 27.463-13.148
	c 0.247-0.186, 0.494-0.378, 0.742-0.57c 4.153-3.244, 8.041-6.705, 12.441-9.636c 4.415-2.943, 9.034-5.566, 13.713-8.062
	c 12.59-6.721, 27.889-18.021, 43.015-14.792c 8.963,1.915, 15.043,10.156, 16.374,18.925
	C 583.048,373.465, 577.181,383.263, 568.876,390.953zM 527.192,321.324c0,0-4.492-0.464-6.621-0.695c-0.497,0-0.595,0.406-0.609,0.644c-0.024,0.394, 0.186,1.005, 0.852,1.077
	l 3.888,0.428l-0.17,0.641c-0.064,0.238-0.021,0.46, 0.114,0.625l 0.192,0.231l-0.085,0.29c-0.494,1.727-0.163,3.63, 0.488,5.952
	l 0.013,0.329l-0.144,0.215c-0.472,0.556-1.354,1.588-1.403,1.85l 0.063,1.276l-0.517,0.073c-3.655,0.511-6.738,0.764-9.703,0.791
	c-0.795,0.008-0.814,0.787-0.814,0.875c 0.004,0.085, 0.027,0.83, 0.803,0.83c 1.128-0.010, 2.253-0.055, 3.375-0.125l 0.983-0.062
	l-0.434,0.883c-0.093,0.184-0.133,0.352-0.124,0.509l 0.043,0.568c0,0-2.092,0.129-2.854,0.168
	c-1.406,0.074-2.808,0.147-4.199,0.282l-0.433,0.218l-0.155-0.006c-6.349-0.339-12.583-0.85-18.647-1.531
	c-0.284,0-0.466,0.129-0.557,0.396l-0.152,0.452l-0.472-0.073c-5.012-0.758-9.619-1.686-14.090-2.833l-3.455-0.893
	c-12.050-3.118-27.048-7.003-39.632-7.003c-0.803,0-1.594,0.014-2.376,0.047c-1.586,1.576-4.176,2.251-8.575,2.251
	c-3.154,0-7.126-0.323-12.22-0.74c-5.026-0.413-10.139-1.116-14.653-1.735l-6.202-0.86
	c-8.678-1.192-17.649-2.426-26.443-3.243c-14.905-1.384-27.37-3.465-39.23-6.551
	c-7.742-2.016-14.318-2.422-22.416-2.422c-1.832,0-3.715,0.018-5.682,0.041l-4.729,0.039
	c-3.368,0-7.148-0.708-10.803-1.392l-0.337-0.065c-3.223-0.595-6.872-1.272-9.444-1.272c-0.312,0-0.609,0.012-0.889,0.032
	c-1.73,0.139-3.526,0.208-5.343,0.208c-4.609,0-9.687-0.445-15.527-1.363c-3.82-0.603-7.661-1.351-11.050-2.013
	l-1.161-0.227c-5.735-1.114-11.629-1.983-17.326-2.825l-3.638-0.535c-4.021-0.578-8.177-1.177-12.369-2.39
	c-1.749-0.507-3.396-1.304-4.927-2.042c-0.867-0.417-3.174-1.519-3.668-1.519l-0.414,0 l-0.236-0.736
	c-0.601,0.125-1.21,0.188-1.815,0.188c-1.95,0-3.97-0.65-6-1.93l-6.689-4.229l 1.28-1.4l 0.79-0.291l 0.376,0.166
	c 0.376-0.139, 0.761-0.331, 1.153-0.521c 0.909-0.448, 1.85-0.908, 2.872-0.908c 0.272,0, 0.543,0.033, 1.015,0.129
	c 0.419,0, 0.868-0.341, 0.868-0.85c0-1.335-0.743-1.713-2.175-2.32l-0.767-0.335l-0.488-0.808l 0.23-0.305
	c 0.847-1.128, 1.502-2.454, 2.139-3.735l 0.272-0.549c 0.198-0.396, 0.152-0.717-0.227-1.239l-0.184-0.245l 0.105-0.29
	c 0.291-0.808, 0.587-1.621, 0.935-2.388l 0.077-0.173l 0.164-0.092c 2.836-1.594, 6.35-2.014, 7.729-2.118
	c 1.294-0.106, 2.589-0.149, 3.869-0.149c 2.556,0, 5.096,0.172, 7.459,0.358c 7.729,0.595, 15.517,1.88, 22.386,3.009l 1.033,0.167
	c 10,1.635, 20,2.003, 30.666,2.394l 0.71,0.026c 5.678,0.211, 12.303,0.501, 19.268,1.319
	c 1.549,0.801, 3.054,1.37, 4.742,1.762c 0.14,0, 0.305-0.051, 0.483-0.149l 0.584-0.109l 0.265,0.511c 0.196,0.347, 0.531,0.4, 0.711,0.4
	c 0.164,0, 0.331-0.042, 0.486-0.116l 1.31-0.654c 0.28-0.141, 0.472-0.611, 0.368-0.914c-0.432-1.286-0.971-2.181-1.744-2.905
	l-0.14-0.131l-0.032-0.192c-0.483-2.919-1.129-5.918-1.607-8.139c-0.722-3.369-1.404-6.552-1.668-9.17
	c-0.537-5.29-1.7-10.519-2.947-16.12c-1.472-6.586-2.996-13.399-3.393-20.421
	c-0.599-10.611-2.56-17.88-6.208-28.375c-2.164-6.234-2.853-12.667-3.517-18.888c-0.35-3.312-0.683-6.449-1.223-9.438
	c-1.276-0.37-2.449-0.811-3.634-1.265c-1.134-0.431-2.304-0.871-3.402-1.141c-1.65-0.4-3.616-0.403-5.701-0.405
	c-2.328-0.002-4.969-0.006-7.749-0.55c-8.054-1.58-12.371-3.752-14.438-7.249c-0.413-0.703-0.77-1.457-1.118-2.377
	l-0.328-0.858l 0.914,0.088c 0.165,0.018, 0.327,0.026, 0.484,0.026c 1.335,0, 1.65-0.617, 1.771-1.081c 0.071-0.268, 0.032-0.499-0.113-0.685
	c-0.167-0.217-0.47-0.358-0.773-0.358c-0.154,0-0.375,0.035-0.545,0.209l-0.391,0.176l-0.897,0 l 0.094-0.654
	c 0.090-0.593, 0.177-1.166, 0.276-1.727l 0.108-0.337l 0.319-0.108c 0.564-0.219, 0.867-0.458, 1.206-0.948
	c 0.131-0.192, 0.178-0.372, 0.133-0.543c-0.049-0.198-0.225-0.385-0.466-0.507l-0.416-0.415l 0.233-0.503
	c 0.050-0.108, 0.104-0.214, 0.344-0.503c 1.513-0.978, 3.363-2.026, 5.601-2.351c 0.278-0.039, 0.433-0.178, 0.494-0.437
	c 0.094-0.397-0.088-0.916-0.4-1.135c-0.735-0.517-1.337-0.707-2.386-0.742c-0.113,0-0.232,0.041-0.377,0.133l-0.253,0.161
	l-0.276-0.118c-0.41-0.174-0.817-0.358-1.216-0.558l-0.246-0.125l-0.867-4.218l 6.852-1.079c 2.219-0.349, 5.070-0.535, 8.246-0.535
	c 4.43,0, 9.291,0.345, 13.778,0.971c-0.909-5.391-2.48-10.977-4.151-16.921c-3.433-12.197-6.981-24.809-5.031-37.665
	l 1.337-8.845l 8.066,3.871c 1.192,0.569, 1.704,0.622, 2.477,0.702c 3.566,0.38, 6.129,1.461, 9.455,6.088
	c 2.256,3.135, 3.264,7.631, 4.165,11.655l 0.101,0.468c 0.27,1.218, 0.521,2.351, 0.807,3.248
	c 1.573,4.971, 2.812,10.259, 4.039,15.501c 1.154,4.926, 2.342,10.014, 3.816,14.787c 0.388,1.247, 0.722,2.586, 1.067,3.966
	c 0.603,2.418, 1.225,4.918, 2.141,6.372c 1.34,2.116, 1.34,2.116, 4.369,2.548c 1.37,0.198, 2.982,0.431, 4.93,0.849
	c 6.612,1.402, 13.305,2.148, 20.584,2.962c 6.439,0.717, 13.098,1.458, 19.708,2.737l 3.232,0.623l 1.177,2.391
	c 3.004,1.84, 15.363,2.453, 20.116,2.686c 3.819,0.19, 6.832,0.337, 8.972,0.703c 4.164,0.726, 8.402,1.095, 13.024,1.501
	c 3.918,0.343, 7.968,0.699, 12.007,1.304c 1.288,0.196, 2.503,0.34, 3.65,0.475l 0.489,0.061
	c 5.503,0.644, 11.193,1.312, 16.278,6.12l 0.591,0.562l-0.73,0.36c-0.282,0.143-0.418,0.365-0.418,0.688
	c0,0.346-0.021,0.724-0.046,1.116c-0.051,0.849-0.106,1.725, 0.074,2.385c 0.106,0.374, 0.625,0.743, 1.046,1.042
	c 0.188,0.133, 0.366,0.258, 0.512,0.38c 1.053,0.895, 2.077,1.897, 3.227,3.162l 0.315,0.346l-0.277,0.376
	c-0.366,0.491-0.627,0.732-0.909,0.834c-0.274,0.1-0.439,0.306-0.527,0.454l-0.094,0.159l-0.168,0.074
	c-0.291,0.131-0.488,0.507-0.468,0.889c 0.013,0.258, 0.127,0.599, 0.587,0.748l 0.59,0.178l 0.696,0.272
	c 0.805,0.762, 1.785,1.208, 3.084,1.408l 0.524,0.078l-0.042,0.529c-0.058,0.752-0.158,1.365-0.316,1.922l-0.149,0.527l-2.371-0.556
	l-0.335-0.137c-0.109-0.043-0.211-0.065-0.307-0.065l-0.233,0.014l-0.061-0.014c-1.944-0.425-3.898-0.824-6.009-1.234
	c-0.113,0-0.225,0.027-0.352,0.085l-0.222,0.096l-1.661-0.708c-0.13-0.053-0.257-0.080-0.384-0.080
	c-0.491,0-0.911,0.434-0.994,0.836c-0.061,0.303, 0.067,0.517, 0.388,0.656l 2.207,0.926c 3.784,1.58, 7.696,3.216, 11.253,5.444
	l 0.232,0.145l 0.031,0.268c 0.13,1.075, 0.133,2.014, 0.004,2.956l-0.931,6.97l-6.903-1.353c-0.667-0.133-1.31-0.344-1.956-0.644
	c-0.682,0.089-1.392,0.131-2.132,0.131c-4.185,0-9.264-1.351-14.691-2.897c-1.033-0.296-1.952-0.556-2.702-0.746
	c-3.859-0.969-7.222-1.817-10.679-2.302l 0.129,3.43l-0.544,0.045c-1.073,0.086-2.154,0.127-3.237,0.127
	c-9.516,0-19.336-3.146-28.883-6.208c-5.565-1.786-10.822-3.475-15.585-4.371c-5.479-1.026-11.031-1.418-16.987-1.84
	c-6.179-0.439-12.56-0.891-18.858-2.15c 0.664,2.48, 1.225,4.988, 1.725,7.233c 0.618,2.778, 1.204,5.4, 1.876,7.579
	c 1.705,5.564, 3.118,11.481, 4.375,16.731c 1.313,5.503, 2.674,11.194, 4.322,16.465
	c 3.967,12.657, 6.87,23.181, 9.132,33.127c 0.267,1.183, 0.922,3.091, 1.668,5.271c 1.901,5.538, 4.254,12.388, 4.008,18.473
	c 5.372,0.703, 11.024,1.28, 15.703,1.76c 5.761,0.595, 11.717,1.214, 17.567,2.012c 2.122,0.292, 4.264,0.535, 6.416,0.779
	l 0.544,0.063c 3.759,0.425, 7.647,0.863, 11.561,1.539c 1.472,0.252, 2.948,0.372, 4.648,0.372c 1.517,0, 3.042-0.094, 4.719-0.194
	c 1.782-0.111, 3.701-0.229, 5.778-0.229c 1.574,0, 3.041,0.067, 4.487,0.203c 6.432,0.617, 13.22,0.883, 19.208,1.12
	c 5.738,0.227, 12.244,0.482, 18.641,1.043c 4.839,0.431, 9.587,1.126, 14.176,1.798c 5.669,0.834, 11.028,1.623, 16.454,1.934
	l 0.043-0.726l 5.765-0.425c 0.484-0.035, 0.96-0.052, 1.437-0.068l 0.584-0.012c 4.776,0.84, 9.716,1.406, 14.494,1.954
	c 9.354,1.075, 19.026,2.183, 28.061,5.38l 1.147,0.544l-1.535,0.708c-0.388,0.178-0.374,0.621-0.36,0.75
	c 0.033,0.32, 0.233,0.697, 0.585,0.779c 1.674,0.372, 3.21,0.619, 4.701,0.754l 0.674,0.063l-0.177,0.655
	c-0.664,2.441-1.058,4.704-1.21,6.919c-0.012,0.176, 0.068,0.37, 0.219,0.529c 0.163,0.176, 0.391,0.286, 0.613,0.286
	c 0.004,0, 0.004,0, 0.004,0c 0.613-0.020, 1.282-0.104, 1.966-0.184l 0.779-0.092l 0.123,0.478c 0.209,0.799, 0.424,1.59, 0.648,2.379
	l 0.045,0.161L 527.192,321.324z" horiz-adv-x="618.603" data-tags="fc-logo" />
<glyph unicode="&#xe002;" d="M 192,448l 320,0 l0-64 L 192,384 L 192,448 z M 192,256l 320,0 l0-64 L 192,192 L 192,256 z M 192,64l 320,0 l0-64 L 192,0 L 192,64 zM0,416A64,64 2700 1 1 128,416A64,64 2700 1 1 0,416zM0,224A64,64 2700 1 1 128,224A64,64 2700 1 1 0,224zM0,32A64,64 2700 1 1 128,32A64,64 2700 1 1 0,32z" data-tags="list, bullet, ul, todo, menu" />
<glyph unicode="&#xe013;" d="M 32,384L 480,384L 480,288L 32,288zM 32,256L 480,256L 480,160L 32,160zM 32,128L 480,128L 480,32L 32,32z" data-tags="menu, list, items, lines, options" />
<glyph unicode="&#x20;" horiz-adv-x="256" />
</font>
</defs>
</svg>
